<svg xmlns="http://www.w3.org/2000/svg" viewBox="0 0 64 64" role="img" aria-label="Discord">
  <rect width="64" height="64" rx="16" fill="#5865f2"/>
  <path fill="#fff" d="M47.2 20.4A36.8 36.8 0 0 0 38 17.5l-.5 1a34 34 0 0 1 8.1 3.1 27.8 27.8 0 0 0-24.2 0 34 34 0 0 1 8.1-3.1l-.5-1a36.8 36.8 0 0 0-9.2 2.9C14 29.1 12.4 37.5 13.2 45.8A37 37 0 0 0 24.5 51l1.4-2.4a23.9 23.9 0 0 1-3.6-1.7l.9-.7a26.4 26.4 0 0 0 17.6 0l.9.7a23.9 23.9 0 0 1-3.6 1.7l1.4 2.4a37 37 0 0 0 11.3-5.2c1-9.6-1.7-17.9-3.6-25.4ZM26.2 40.7c-2.2 0-4-2-4-4.5s1.8-4.5 4-4.5 4 2 4 4.5-1.8 4.5-4 4.5Zm11.6 0c-2.2 0-4-2-4-4.5s1.8-4.5 4-4.5 4 2 4 4.5-1.8 4.5-4 4.5Z"/>
</svg>
