<svg xmlns="http://www.w3.org/2000/svg" viewBox="0 0 64 64" role="img" aria-label="LINE">
  <rect width="64" height="64" rx="16" fill="#06c755"/>
  <path fill="#fff" d="M32 14c-11.6 0-21 7.5-21 16.8 0 8.3 7.5 15.2 17.3 16.5.7.2 1.6.5 1.8 1.1.2.5.1 1.3.1 1.9l-.3 1.8c-.1.5-.4 2 .4 2.3.8.4 1.8-.4 2.5-1l3.4-2.9c9.5-1.3 16.8-8.1 16.8-16.4C53 21.5 43.6 14 32 14Z"/>
  <path fill="#06c755" d="M21.9 35.7h-4.8V26h2.2v7.6h2.6v2.1Zm4.1 0h-2.2V26H26v9.7Zm10.1 0H34l-4-5.4v5.4h-2.2V26H30l3.9 5.4V26h2.2v9.7Zm7.9-5.9v2.1h-2.8v1.7h3.1v2.1H39V26h5.3v2.1h-3.1v1.7H44Z"/>
</svg>
