<svg xmlns="http://www.w3.org/2000/svg" viewBox="0 0 64 64" role="img" aria-label="海外视频下载">
  <defs>
    <linearGradient id="bg" x1="10" x2="54" y1="8" y2="56" gradientUnits="userSpaceOnUse">
      <stop stop-color="#0f172a"/>
      <stop offset=".55" stop-color="#111827"/>
      <stop offset="1" stop-color="#1e1b4b"/>
    </linearGradient>
    <linearGradient id="ig" x1="42" x2="58" y1="45" y2="29" gradientUnits="userSpaceOnUse">
      <stop stop-color="#feda75"/>
      <stop offset=".32" stop-color="#fa7e1e"/>
      <stop offset=".62" stop-color="#d62976"/>
      <stop offset="1" stop-color="#4f5bd5"/>
    </linearGradient>
  </defs>
  <rect width="64" height="64" rx="16" fill="url(#bg)"/>
  <circle cx="18.5" cy="18.5" r="10.5" fill="#1877f2"/>
  <path fill="#fff" d="M20.6 28.5v-7h2.4l.4-3h-2.8v-2c0-.9.3-1.4 1.5-1.4h1.5v-2.7c-.8-.1-1.7-.2-2.4-.2-2.4 0-4 1.5-4 4.1v2.2h-2.7v3h2.7v7h3.4Z"/>
  <rect x="27.5" y="8" width="18" height="18" rx="5" fill="#000"/>
  <path fill="#fff" d="m38.2 16.2 5.4-6.2h-2.1l-4.2 4.9-3.4-4.9h-5.5l5.7 8.3-5.5 6.4h2.1l4.3-5 3.5 5h5.5l-5.8-8.5Zm-2 2.3-.9-1.2-3.7-5.4h1.3l3.2 4.6.9 1.2 3.9 5.1h-1.3l-3.4-4.3Z"/>
  <rect x="44" y="29" width="17" height="17" rx="5" fill="url(#ig)"/>
  <rect x="48.5" y="33.5" width="8" height="8" rx="2.7" fill="none" stroke="#fff" stroke-width="1.7"/>
  <circle cx="52.5" cy="37.5" r="2.1" fill="none" stroke="#fff" stroke-width="1.7"/>
  <circle cx="55.4" cy="34.6" r=".8" fill="#fff"/>
  <rect x="7.5" y="35" width="21" height="15" rx="4" fill="#ff0000"/>
  <path fill="#fff" d="m16 39 7 3.5-7 3.5v-7Z"/>
  <rect x="28" y="29" width="19" height="19" rx="5" fill="#050505"/>
  <path d="M39.8 33c.5 2 1.7 3.2 3.7 3.6v2.6a7.7 7.7 0 0 1-3.6-1v3.4c0 3.1-2.1 5.2-5 5.2-2.4 0-4.2-1.6-4.2-3.9 0-2.3 1.8-3.9 4.5-3.9.3 0 .6 0 .9.1V42a2.8 2.8 0 0 0-1.1-.2c-.9 0-1.5.5-1.5 1.2s.6 1.1 1.4 1.1c1 0 1.8-.7 1.8-2.1v-9h3.1Z" fill="#25f4ee"/>
  <path d="M38.7 33c.5 2.2 1.7 3.5 3.7 3.9v1.4a7.7 7.7 0 0 1-3.6-1v3.4c0 3.1-2.1 5.2-5 5.2-1 0-1.9-.2-2.6-.7.9.7 2 1 3.3 1 3 0 5-2.1 5-5.2v-3.4a7.7 7.7 0 0 0 3.6 1.1v-2.8c-2-.4-3.2-1.7-3.7-3.9h-.7Z" fill="#fe2c55"/>
  <circle cx="45.5" cy="49" r="11" fill="#111827" stroke="#38bdf8" stroke-width="2.5"/>
  <path fill="#fff" d="M44 42h3v7h4l-5.5 5.5L40 49h4v-7Zm-5 14h13v2.5H39V56Z"/>
</svg>
