<svg xmlns="http://www.w3.org/2000/svg" viewBox="0 0 64 64" role="img" aria-label="QQ">
  <rect width="64" height="64" rx="16" fill="#12b7f5"/>
  <circle cx="32" cy="25" r="11" fill="#fff"/>
  <path fill="#fff" d="M19.5 40.5c0-8.2 5.6-14.5 12.5-14.5s12.5 6.3 12.5 14.5c0 7.2-5.6 11-12.5 11s-12.5-3.8-12.5-11Z"/>
  <path fill="#111" d="M26.5 24.8a2 2 0 1 0 0-4 2 2 0 0 0 0 4Zm11 0a2 2 0 1 0 0-4 2 2 0 0 0 0 4Z"/>
  <path fill="#f6c343" d="M28 28.4h8l-4 4-4-4Z"/>
  <path fill="#e94646" d="M24 41.6c1.7 3 4.4 4.6 8 4.6s6.3-1.6 8-4.6c-2.3 1.1-5 1.7-8 1.7s-5.7-.6-8-1.7Z"/>
  <path fill="#111" d="M18.5 40.5c-3.6 2.2-5.4 4.7-4.8 6.4.5 1.4 2.5 1.7 5.4.8-.4-2.1-.6-4.5-.6-7.2Zm27 0c3.6 2.2 5.4 4.7 4.8 6.4-.5 1.4-2.5 1.7-5.4.8.4-2.1.6-4.5.6-7.2Z" opacity=".22"/>
</svg>
