<svg xmlns="http://www.w3.org/2000/svg" viewBox="0 0 64 64" role="img" aria-label="Signal">
  <rect width="64" height="64" rx="16" fill="#3a76f0"/>
  <path fill="#fff" d="M32 13.5a18.5 18.5 0 0 0-15.4 28.8l-2 7.2 7.4-2A18.5 18.5 0 1 0 32 13.5Zm0 4a14.5 14.5 0 0 1 0 29c-2.5 0-4.8-.6-6.9-1.8l-.7-.4-4 .9 1-3.8-.5-.8A14.5 14.5 0 0 1 32 17.5Z"/>
  <path fill="#fff" d="M32 9h1.6v3H32V9Zm-6.1 1.1 1.5-.4.8 2.9-1.5.4-.8-2.9Zm-5.6 2.7 1.3-.8 1.5 2.6-1.3.8-1.5-2.6Zm-4.7 4.1 1.1-1.1 2.1 2.1-1.1 1.1-2.1-2.1Zm-3.4 5.2.8-1.3 2.6 1.5-.8 1.3-2.6-1.5ZM10.1 28l.4-1.5 2.9.8-.4 1.5-2.9-.8ZM9 34.6V33h3v1.6H9Zm1.1 6.1 2.9-.8.4 1.5-2.9.8-.4-1.5Zm43.8 0-.4 1.5-2.9-.8.4-1.5 2.9.8ZM55 34.6h-3V33h3v1.6ZM53.9 28l-2.9.8-.4-1.5 2.9-.8.4 1.5Zm-2.1-5.9-2.6 1.5-.8-1.3 2.6-1.5.8 1.3Zm-3.4-5.2-2.1 2.1-1.1-1.1 2.1-2.1 1.1 1.1Zm-4.7-4.1-1.5 2.6-1.3-.8 1.5-2.6 1.3.8Zm-5.6-2.7-.8 2.9-1.5-.4.8-2.9 1.5.4Z"/>
</svg>
