<svg xmlns="http://www.w3.org/2000/svg" viewBox="0 0 64 64" role="img" aria-label="TikTok">
  <rect width="64" height="64" rx="16" fill="#050505"/>
  <path d="M40 16c1.5 6 5.2 9.8 11 11v8.4a23 23 0 0 1-10.8-3.1v10.2c0 9.2-6.2 15.5-15.1 15.5-7.2 0-12.6-4.8-12.6-11.5 0-7 5.5-11.8 13.4-11.8 1.1 0 2 .1 2.9.3v8.7a8.5 8.5 0 0 0-3.4-.7c-2.8 0-4.6 1.4-4.6 3.5 0 2 1.8 3.3 4.2 3.3 3.1 0 5.3-2 5.3-6.2V16H40Z" fill="#25f4ee"/>
  <path d="M37 16c1.5 6 5.2 9.8 11 11v7.4a23 23 0 0 1-10.8-3.1v10.2C37.2 50.7 31 57 22.1 57c-2.6 0-5-.6-7-1.7 2.4 1.9 5.6 3 9.2 3 8.9 0 15.1-6.3 15.1-15.5V32.6A23 23 0 0 0 50.2 36v-8.4c-6-1.2-9.7-5-11.2-11.6H37Z" fill="#fe2c55"/>
  <path d="M39.4 30.6v12.2c0 9.2-6.2 15.5-15.1 15.5-3.6 0-6.8-1.1-9.2-3-3.5-2-5.6-5.5-5.6-9.8 0-7 5.5-11.8 13.4-11.8 1.1 0 2 .1 2.9.3v8.7a8.5 8.5 0 0 0-3.4-.7c-2.8 0-4.6 1.4-4.6 3.5 0 2 1.8 3.3 4.2 3.3 3.1 0 5.3-2 5.3-6.2V16H37c1.5 6.6 5.2 10.4 11.2 11.6v3.8a23 23 0 0 1-8.8-3Z" fill="#fff"/>
</svg>
