<svg xmlns="http://www.w3.org/2000/svg" viewBox="0 0 64 64" role="img" aria-label="Watermark remover">
  <defs>
    <linearGradient id="bg" x1="10" x2="54" y1="8" y2="56" gradientUnits="userSpaceOnUse">
      <stop stop-color="#14b8a6"/>
      <stop offset="1" stop-color="#2563eb"/>
    </linearGradient>
  </defs>
  <rect width="64" height="64" rx="16" fill="url(#bg)"/>
  <path fill="#fff" d="M17 18h30a4 4 0 0 1 4 4v20a4 4 0 0 1-4 4H17a4 4 0 0 1-4-4V22a4 4 0 0 1 4-4Zm0 5v17.4l9.1-9.1a3 3 0 0 1 4.2 0l4.2 4.2 2.2-2.2a3 3 0 0 1 4.2 0L46 38.4V23H17Zm5.5 9a4.5 4.5 0 1 0 0-9 4.5 4.5 0 0 0 0 9Z" opacity=".92"/>
  <path fill="#fff" d="M42.7 16.2a2.5 2.5 0 0 1 3.6 0l1.5 1.5a2.5 2.5 0 0 1 0 3.6L29.2 39.8l-5.7 1.4 1.4-5.7 17.8-19.3Z"/>
  <path fill="#0f172a" d="m40.2 20.3 3.5 3.5-15.2 15.2-3.9 1 1-3.9 14.6-15.8Z" opacity=".18"/>
</svg>
