<svg xmlns="http://www.w3.org/2000/svg" viewBox="0 0 64 64" role="img" aria-label="WhatsApp">
  <rect width="64" height="64" rx="16" fill="#25d366"/>
  <path fill="#fff" d="M31.9 12.5a19 19 0 0 0-16.4 28.5l-2.2 10.5 10.7-2.1a19 19 0 1 0 7.9-36.9Zm0 34.2c-2.7 0-5.4-.7-7.8-2.1l-.7-.4-6 1.2 1.2-5.9-.4-.7a15.4 15.4 0 1 1 13.7 7.9Zm8.7-11.5c-.5-.3-2.8-1.4-3.3-1.5-.4-.2-.8-.3-1.1.3-.3.5-1.3 1.5-1.6 1.8-.3.4-.6.4-1.1.2-3.1-1.5-5.1-2.7-7.1-6.2-.5-.9.5-.8 1.5-2.7.2-.4.1-.7 0-1-.1-.3-1.1-2.7-1.5-3.7-.4-1-.8-.8-1.1-.8h-.9c-.3 0-.9.1-1.3.6-.5.5-1.7 1.7-1.7 4.1 0 2.4 1.8 4.8 2 5.1.3.3 3.5 5.4 8.5 7.6 3.2 1.4 4.5 1.5 6.1 1.2.9-.1 2.8-1.1 3.2-2.3.4-1.1.4-2.1.3-2.3-.2-.2-.5-.3-1-.5Z"/>
</svg>
